<svg width="61" height="26" viewBox="0 0 61 26" fill="none" xmlns="http://www.w3.org/2000/svg">
<path d="M28.2917 8.8H36.2717V11.245H35.8817L35.4467 9.67C35.4167 9.55 35.3817 9.465 35.3417 9.415C35.3117 9.355 35.2467 9.32 35.1467 9.31C35.0467 9.29 34.8767 9.28 34.6367 9.28H32.9417V17.785C32.9417 18.135 32.9567 18.34 32.9867 18.4C33.0167 18.46 33.1117 18.5 33.2717 18.52L34.0967 18.61V19H30.4817V18.61L31.3067 18.52C31.4667 18.5 31.5617 18.46 31.5917 18.4C31.6217 18.34 31.6367 18.135 31.6367 17.785V9.28H29.9267C29.6967 9.28 29.5267 9.29 29.4167 9.31C29.3167 9.32 29.2467 9.355 29.2067 9.415C29.1767 9.465 29.1467 9.55 29.1167 9.67L28.6817 11.245H28.2917V8.8ZM37.1956 9.205V8.8H41.4556C42.4456 8.8 43.2006 9.05 43.7206 9.55C44.2406 10.04 44.5006 10.695 44.5006 11.515V11.95C44.5006 12.77 44.2406 13.43 43.7206 13.93C43.2006 14.43 42.4456 14.68 41.4556 14.68H39.6556V17.785C39.6556 18.135 39.6706 18.345 39.7006 18.415C39.7306 18.475 39.8256 18.51 39.9856 18.52L41.1106 18.61V19H37.1956V18.61L38.0206 18.52C38.1806 18.5 38.2756 18.46 38.3056 18.4C38.3356 18.34 38.3506 18.135 38.3506 17.785V10.015C38.3506 9.665 38.3356 9.46 38.3056 9.4C38.2756 9.34 38.1806 9.3 38.0206 9.28L37.1956 9.205ZM41.4556 9.28H39.6556V14.2H41.4556C42.5656 14.2 43.1206 13.52 43.1206 12.16V11.305C43.1206 9.955 42.5656 9.28 41.4556 9.28ZM45.2839 8.8H53.2639V11.245H52.8739L52.4389 9.67C52.4089 9.55 52.3739 9.465 52.3339 9.415C52.3039 9.355 52.2389 9.32 52.1389 9.31C52.0389 9.29 51.8689 9.28 51.6289 9.28H49.9339V17.785C49.9339 18.135 49.9489 18.34 49.9789 18.4C50.0089 18.46 50.1039 18.5 50.2639 18.52L51.0889 18.61V19H47.4739V18.61L48.2989 18.52C48.4589 18.5 48.5539 18.46 48.5839 18.4C48.6139 18.34 48.6289 18.135 48.6289 17.785V9.28H46.9189C46.6889 9.28 46.5189 9.29 46.4089 9.31C46.3089 9.32 46.2389 9.355 46.1989 9.415C46.1689 9.465 46.1389 9.55 46.1089 9.67L45.6739 11.245H45.2839V8.8Z" fill="#040448"/>
<circle cx="10.5" cy="12.2192" r="10.5" fill="#040448"/>
<path d="M1.18736 5.67832C1.18736 6.19783 1.13049 7.51657 1.05466 8.61553C0.959871 10.234 0.978828 10.5737 1.18736 10.4937C1.33902 10.4538 1.54756 10.0142 1.6613 9.51467C2.1542 7.49659 3.13999 6.31772 4.75139 5.79821C5.64239 5.4985 6.57131 5.43855 10.1353 5.43855H14.4197L15.2349 6.03798C16.4292 6.91714 17.0169 8.23589 16.998 10.0142C16.998 12.4319 15.9174 13.9305 13.8889 14.3301C13.3392 14.43 12.8084 14.5299 12.7325 14.5299C12.6377 14.5299 12.5619 13.0513 12.5619 11.253V7.95616L11.9742 7.89621C11.3865 7.83627 11.3676 7.79631 11.3486 6.83722C11.3297 6.27775 11.2728 5.85815 11.197 5.87813C11.1022 5.9181 10.9695 5.93808 10.8557 5.93808C10.7609 5.93808 10.6661 6.37766 10.6661 6.93713C10.6661 7.91619 10.6472 7.93617 10.0974 7.93617H9.52869V15.5289V23.1217H10.0974C10.6282 23.1217 10.6661 23.1617 10.6661 23.921V24.7202H8.31541H5.98363L6.07842 25.2197L6.15425 25.7192H11.159H16.1638V25.2197V24.7202H13.7941H11.4244V23.921C11.4244 23.1617 11.4624 23.1217 11.9932 23.1217H12.5619V19.0456V14.9695L14.9885 14.8896C16.998 14.8296 17.5288 14.7497 18.1733 14.39C19.8416 13.4509 20.6568 11.8325 20.4672 9.71448C20.2966 7.73636 19.216 6.17785 17.3961 5.29869C16.4672 4.83912 16.3155 4.83912 8.82726 4.77918L1.18736 4.71924V5.67832Z" fill="white"/>
</svg>
