<svg width="131" height="72" viewBox="0 0 131 72" fill="none" xmlns="http://www.w3.org/2000/svg">
<ellipse cx="65.7178" cy="22.7192" rx="21.5" ry="22" fill="#040448"/>
<path d="M46.3913 14.2949C46.3913 15.3215 46.2725 17.9275 46.1142 20.0992C45.9162 23.2975 45.9558 23.9687 46.3913 23.8108C46.7081 23.7318 47.1436 22.8631 47.3812 21.876C48.4107 17.888 50.4696 15.5584 53.8352 14.5318C55.6962 13.9395 57.6363 13.821 65.0802 13.821H74.0287L75.7313 15.0056C78.2258 16.7429 79.4532 19.349 79.4136 22.8631C79.4136 27.6408 77.1567 30.6022 72.92 31.3919C71.7718 31.5893 70.6631 31.7868 70.5047 31.7868C70.3068 31.7868 70.1484 28.8649 70.1484 25.3112V18.7962L68.9209 18.6777C67.6935 18.5593 67.6539 18.4803 67.6143 16.585C67.5747 15.4794 67.4559 14.6502 67.2975 14.6897C67.0996 14.7687 66.8224 14.8082 66.5848 14.8082C66.3869 14.8082 66.1889 15.6768 66.1889 16.7824C66.1889 18.7172 66.1493 18.7567 65.001 18.7567H63.8132V33.761V48.7654H65.001C66.1097 48.7654 66.1889 48.8443 66.1889 50.3448V51.9242H61.2791H56.4089L56.6069 52.9113L56.7652 53.8984H67.2184H77.6715V52.9113V51.9242H72.7221H67.7727V50.3448C67.7727 48.8443 67.8519 48.7654 68.9605 48.7654H70.1484V40.7104V32.6554L75.2166 32.4975C79.4136 32.379 80.5223 32.2211 81.8685 31.5104C85.3529 29.6546 87.0555 26.4563 86.6595 22.2709C86.3032 18.3618 84.0463 15.282 80.2451 13.5446C78.305 12.6365 77.9882 12.6365 62.3482 12.518L46.3913 12.3996V14.2949Z" fill="white"/>
<path d="M53.0095 52.8H60.9895V55.245H60.5995L60.1645 53.67C60.1345 53.55 60.0995 53.465 60.0595 53.415C60.0295 53.355 59.9645 53.32 59.8645 53.31C59.7645 53.29 59.5945 53.28 59.3545 53.28H57.6595V61.785C57.6595 62.135 57.6745 62.34 57.7045 62.4C57.7345 62.46 57.8295 62.5 57.9895 62.52L58.8145 62.61V63H55.1995V62.61L56.0245 62.52C56.1845 62.5 56.2795 62.46 56.3095 62.4C56.3395 62.34 56.3545 62.135 56.3545 61.785V53.28H54.6445C54.4145 53.28 54.2445 53.29 54.1345 53.31C54.0345 53.32 53.9645 53.355 53.9245 53.415C53.8945 53.465 53.8645 53.55 53.8345 53.67L53.3995 55.245H53.0095V52.8ZM61.9134 53.205V52.8H66.1734C67.1634 52.8 67.9184 53.05 68.4384 53.55C68.9584 54.04 69.2184 54.695 69.2184 55.515V55.95C69.2184 56.77 68.9584 57.43 68.4384 57.93C67.9184 58.43 67.1634 58.68 66.1734 58.68H64.3734V61.785C64.3734 62.135 64.3884 62.345 64.4184 62.415C64.4484 62.475 64.5434 62.51 64.7034 62.52L65.8284 62.61V63H61.9134V62.61L62.7384 62.52C62.8984 62.5 62.9934 62.46 63.0234 62.4C63.0534 62.34 63.0684 62.135 63.0684 61.785V54.015C63.0684 53.665 63.0534 53.46 63.0234 53.4C62.9934 53.34 62.8984 53.3 62.7384 53.28L61.9134 53.205ZM66.1734 53.28H64.3734V58.2H66.1734C67.2834 58.2 67.8384 57.52 67.8384 56.16V55.305C67.8384 53.955 67.2834 53.28 66.1734 53.28ZM70.0016 52.8H77.9816V55.245H77.5916L77.1566 53.67C77.1266 53.55 77.0916 53.465 77.0516 53.415C77.0216 53.355 76.9566 53.32 76.8566 53.31C76.7566 53.29 76.5866 53.28 76.3466 53.28H74.6516V61.785C74.6516 62.135 74.6666 62.34 74.6966 62.4C74.7266 62.46 74.8216 62.5 74.9816 62.52L75.8066 62.61V63H72.1916V62.61L73.0166 62.52C73.1766 62.5 73.2716 62.46 73.3016 62.4C73.3316 62.34 73.3466 62.135 73.3466 61.785V53.28H71.6366C71.4066 53.28 71.2366 53.29 71.1266 53.31C71.0266 53.32 70.9566 53.355 70.9166 53.415C70.8866 53.465 70.8566 53.55 70.8266 53.67L70.3916 55.245H70.0016V52.8Z" fill="#040448"/>
</svg>
